<svg id="圖層_1" data-name="圖層 1" xmlns="http://www.w3.org/2000/svg" viewBox="0 0 512 512"><defs><style>.cls-1{fill:#a0a0a0;}</style></defs><title>filepicker1</title><path class="cls-1" d="M425.38,328.17a96.76,96.76,0,0,0-106.6-79.71V166.56h68.73L256,15,124.49,166.56h68.73v28.29h-.3a122.07,122.07,0,0,0-121.1,137A84.93,84.93,0,0,0,99.91,496.94H412.09a84.91,84.91,0,0,0,13.29-168.77Zm-239-189.85L256,58.09l69.62,80.23H290.54V243.68a122.83,122.83,0,0,0-69.08-45.4v-60ZM412.09,468.7H99.91a56.67,56.67,0,0,1-9.52-112.53l14.92-2.52-3.55-14.71a93.8,93.8,0,0,1,176.32-61.38l6.27,13.57,13.19-7a68.74,68.74,0,0,1,100.95,57.75l.57,13.43,13.44.1a56.67,56.67,0,0,1-.41,113.33Z"/></svg>