<svg id="Layer_1" data-name="Layer 1" xmlns="http://www.w3.org/2000/svg" viewBox="0 0 512 512"><defs><style>.cls-1{fill:#61c0bf;}</style></defs><title>icon-monitoring_active</title><path class="cls-1" d="M419.79,84.84A31,31,0,0,0,371.39,49C257.13-14.76,112.81,26.17,49,140.43A236.92,236.92,0,0,0,87.51,422.54a31,31,0,0,0,48,38.63c.23-.23.4-.48.64-.71C249,526.68,394.24,488.85,460.46,376A236.84,236.84,0,0,0,419.77,84.84ZM403.27,60.77a17,17,0,1,1-12-5A17,17,0,0,1,403.27,60.77ZM125.61,451.27a16.88,16.88,0,1,1,.17-.17ZM474.75,299.62C450.67,420.4,333.23,498.8,212.45,474.71a223,223,0,0,1-69.23-26.35,31,31,0,0,0-45.68-35.6A220.83,220.83,0,0,1,33,256C33,132.85,132.87,33,256,33A223,223,0,0,1,362.91,60.3a31,31,0,0,0,48.55,36A223.13,223.13,0,0,1,474.75,299.62Z"/><path class="cls-1" d="M256,89.76A166.42,166.42,0,0,0,89.76,256c0,1,.06,1.94.07,2.92a31,31,0,0,0,12,59.29,166.29,166.29,0,0,0,317.29-29.76c1.05-5.44,1.75-10.77,2.27-16a31,31,0,0,0-5.26-61.32A165.63,165.63,0,0,0,256,89.76ZM90.32,275.22a16.84,16.84,0,0,1,8.23-4.5c.15,0,.3-.09.45-.14a17,17,0,1,1-8.68,4.63ZM389.89,328.5a152.3,152.3,0,0,1-274.2-13.3,30.94,30.94,0,0,0-11.92-58.86V256a152.26,152.26,0,0,1,298.58-42.1,30.94,30.94,0,0,0,5,58.09c-.48,4.51-1.09,9.09-2,13.76A151.6,151.6,0,0,1,389.89,328.5Zm37.36-74.4a17,17,0,1,1-15.34-28.68,1.89,1.89,0,0,0,.36,0,17,17,0,0,1,15,28.73Z"/><path class="cls-1" d="M213.7,213.7a59.82,59.82,0,1,0,84.6,0A59.82,59.82,0,0,0,213.7,213.7Zm74.7,74.7a45.8,45.8,0,1,1,0-64.8A45.8,45.8,0,0,1,288.4,288.4Z"/></svg>