<?xml version="1.0"?>
<svg xmlns="http://www.w3.org/2000/svg" id="Layer_1" data-name="Layer 1" viewBox="0 0 128 128" width="512" height="512"><path d="M104.943,21.205a7.744,7.744,0,0,0-12.1-8.957A59.231,59.231,0,0,0,21.874,105.63a7.748,7.748,0,0,0,12,9.658c.057-.057.1-.119.16-.177a59.245,59.245,0,0,0,88.08-39.53,59.281,59.281,0,0,0-17.174-54.376Zm-4.13-6.018a4.255,4.255,0,1,1-3-1.243A4.256,4.256,0,0,1,100.813,15.187ZM31.4,112.813a4.25,4.25,0,1,1,0-6.011,4.22,4.22,0,0,1,0,6.011ZM118.684,74.9A55.751,55.751,0,0,1,35.8,112.087a7.74,7.74,0,0,0-11.421-8.9A55.208,55.208,0,0,1,8.25,64,55.753,55.753,0,0,1,90.723,15.07a7.741,7.741,0,0,0,12.138,8.988A55.783,55.783,0,0,1,118.684,74.9Z"/><path d="M64,22.44A41.606,41.606,0,0,0,22.44,64c0,.243.014.486.018.729a7.738,7.738,0,0,0,2.988,14.822,41.573,41.573,0,0,0,79.322-7.44c.263-1.361.437-2.693.567-4a7.741,7.741,0,0,0-1.314-15.33A41.408,41.408,0,0,0,64,22.44ZM22.58,68.806a4.209,4.209,0,0,1,2.057-1.124c.038-.009.074-.022.112-.034a4.245,4.245,0,1,1-2.169,1.158ZM97.472,82.125A38.074,38.074,0,0,1,28.922,78.8a7.735,7.735,0,0,0-2.98-14.715c0-.027,0-.055,0-.082a38.066,38.066,0,0,1,74.646-10.525A7.734,7.734,0,0,0,101.831,68c-.119,1.128-.272,2.273-.5,3.441A37.9,37.9,0,0,1,97.472,82.125Zm9.341-18.6a4.25,4.25,0,1,1-3.836-7.171c.03,0,.061-.006.091-.012a4.283,4.283,0,0,1,.74-.071,4.249,4.249,0,0,1,3,7.254Z"/><path d="M53.425,53.425a14.955,14.955,0,1,0,21.15,0A14.972,14.972,0,0,0,53.425,53.425ZM72.1,72.1a11.45,11.45,0,1,1,0-16.2A11.469,11.469,0,0,1,72.1,72.1Z"/></svg>
