<svg id="圖層_1" data-name="圖層 1" xmlns="http://www.w3.org/2000/svg" viewBox="0 0 507.17 493.67"><defs><style>.cls-1,.cls-3,.cls-4,.cls-5,.cls-6{fill:none;}.cls-1,.cls-2,.cls-3,.cls-4,.cls-5,.cls-6{stroke:#000;stroke-miterlimit:10;}.cls-1,.cls-3,.cls-6{stroke-width:8px;}.cls-3{stroke-dasharray:12.11 12.11;}.cls-4,.cls-5{stroke-width:9px;}.cls-5{stroke-dasharray:11.94 11.94;}.cls-6{stroke-dasharray:10.61 10.61;}</style></defs><title>icon-deploy</title><rect class="cls-1" x="14.13" y="5.73" width="89.86" height="89.86" rx="13.91" ry="13.91"/><rect class="cls-1" x="235.16" y="154.2" width="89.86" height="89.86" rx="13.91" ry="13.91"/><rect class="cls-1" x="403.18" y="64.34" width="89.86" height="89.86" rx="13.91" ry="13.91"/><rect class="cls-2" x="198.93" y="389.74" width="98.2" height="98.2" rx="13.91" ry="13.91"/><path class="cls-1" d="M447.89,178.2q.12,3,.18,6"/><path class="cls-3" d="M448,196.31q-3.29,123.05-122.58,187.86"/><path class="cls-1" d="M320.09,387q-2.64,1.38-5.34,2.73"/><path class="cls-4" d="M55.35,116q.1,3,.22,6"/><path class="cls-5" d="M56.21,133.91Q67,302.36,175.91,376.3"/><path class="cls-4" d="M180.89,379.6q2.51,1.62,5.08,3.2"/><path class="cls-1" d="M270.17,273.87q-.88,2.88-1.71,5.75"/><path class="cls-6" d="M265.65,289.85a382.7,382.7,0,0,0-12.16,78.51"/><path class="cls-1" d="M253.27,373.67q-.1,3-.15,6"/></svg>