<svg id="Layer_1" data-name="Layer 1" xmlns="http://www.w3.org/2000/svg" viewBox="0 0 512 512"><defs><style>.cls-1{fill:#61c0bf;}</style></defs><title>icon-monitoring</title><path class="cls-1" d="M252.25,32c-123.64.14-223.83,100.33-224,224,0,1.31.08,2.62.1,3.93a41.7,41.7,0,0,0,16.1,79.88C90.8,454.51,221.36,510,336.09,463.65a224,224,0,0,0,135.85-164c1.42-7.33,2.35-14.51,3.06-21.56a41.72,41.72,0,0,0-7.08-82.61A223.15,223.15,0,0,0,252.25,32ZM29,281.87a22.68,22.68,0,0,1,11.09-6.06c.2,0,.4-.12.6-.18A22.88,22.88,0,1,1,29,281.87Zm403.59,71.78c-54,99.63-178.52,136.64-278.15,82.65A205.18,205.18,0,0,1,63.21,335.72a41.68,41.68,0,0,0-16.06-79.3V256c0-113.29,91.88-205.12,205.17-205.1A205.14,205.14,0,0,1,449.42,199.26a41.68,41.68,0,0,0,6.7,78.26c-.64,6.08-1.47,12.25-2.69,18.54A204.24,204.24,0,0,1,432.63,353.64ZM483,253.41a22.9,22.9,0,1,1-20.67-38.64,2.55,2.55,0,0,0,.49-.06,22.88,22.88,0,0,1,20.15,38.71Z"/><path class="cls-1" d="M212.33,212.32a61.76,61.76,0,1,0,87.34,0A61.76,61.76,0,0,0,212.33,212.32Zm77.12,77.12a47.28,47.28,0,1,1,0-66.9A47.28,47.28,0,0,1,289.45,289.44Z"/></svg>