<svg id="圖層_1" data-name="圖層 1" xmlns="http://www.w3.org/2000/svg" viewBox="0 0 511 511"><defs><style>.cls-1{fill:#61c0bf;}</style></defs><title>icon-upload_active</title><g id="surface1"><path class="cls-1" d="M321.33,28.48a11.16,11.16,0,0,0-8-3.56H133.42c-33.2,0-60.6,27.29-60.6,60.48V425.59c0,33.2,27.4,60.49,60.6,60.49H377.58c33.2,0,60.6-27.29,60.6-60.49V155.47a12,12,0,0,0-3.23-7.8Zm3.23,35.76,76.08,79.87H351.19a26.53,26.53,0,0,1-26.62-26.51Zm53,399.56H133.42c-20.83,0-38.32-17.26-38.32-38.21V85.4A38.58,38.58,0,0,1,133.42,47.2H302.28v70.4a48.73,48.73,0,0,0,48.9,48.79H415.9V425.59A38.51,38.51,0,0,1,377.58,463.8Z"/><path class="cls-1" d="M347.17,386.94H163.83a11.14,11.14,0,1,0,0,22.28H347.29a11.14,11.14,0,1,0-.11-22.28Z"/><path class="cls-1" d="M198.47,267.09l45.89-49.35V339.38a11.14,11.14,0,1,0,22.28,0V217.74l45.89,49.35a11.11,11.11,0,0,0,16.27-15.15l-65.28-70.07a11.06,11.06,0,0,0-16.26,0L182,251.94a11.1,11.1,0,0,0,.56,15.71A11.37,11.37,0,0,0,198.47,267.09Z"/></g></svg>