<svg id="Capa_1" data-name="Capa 1" xmlns="http://www.w3.org/2000/svg" viewBox="0 0 512 512"><defs><style>.cls-1{font-size:222px;font-family:ArialRoundedMTBold, Arial Rounded MT Bold;letter-spacing:-0.02em;}.cls-2{letter-spacing:0em;}</style></defs><title>jar</title><path d="M32,464V48A16,16,0,0,1,48,32H288V96a32,32,0,0,0,32,32h64v48h32V112a16,16,0,0,0-4.64-11.36l-96-96A16,16,0,0,0,304,0H48A48,48,0,0,0,0,48V464a48,48,0,0,0,48,48H160V480H48A16,16,0,0,1,32,464Z"/><text class="cls-1" transform="translate(141 414.06) scale(0.85 1)">J<tspan class="cls-2" x="121.73" y="0">AR</tspan></text></svg>