<svg id="Capa_1" data-name="Capa 1" xmlns="http://www.w3.org/2000/svg" viewBox="0 0 512 512"><title>war</title><path d="M32,464V48A16,16,0,0,1,48,32H288V96a32,32,0,0,0,32,32h64v48h32V112a16,16,0,0,0-4.64-11.36l-96-96A16,16,0,0,0,304,0H48A48,48,0,0,0,0,48V464a48,48,0,0,0,48,48H160V480H48A16,16,0,0,1,32,464Z"/><path d="M225.75,389l-17.64-95.28L190.25,389q-2.08,10.84-3.31,15.56a22,22,0,0,1-4.28,8.46,10,10,0,0,1-8.11,3.74,10.11,10.11,0,0,1-6.74-2.22,15.65,15.65,0,0,1-4.28-6.29,51,51,0,0,1-2.68-9.65q-1-5.58-1.86-10.35l-18.16-107a89.14,89.14,0,0,1-1.64-14.2,17.62,17.62,0,0,1,3-10.41q3-4.23,7.37-4.23a8,8,0,0,1,8.11,5.64,85.45,85.45,0,0,1,3.65,16.37l14.29,92.79,16-86.83q1.79-10,3.2-15.18a23.16,23.16,0,0,1,4.61-9,10.79,10.79,0,0,1,8.71-3.79,10.37,10.37,0,0,1,8.67,4,23.28,23.28,0,0,1,4.28,8.62q1.19,4.66,3.2,15.39l16.15,86.83,14.29-92.79q1-7.26,2-11.38a20.69,20.69,0,0,1,3.2-7.37,7.53,7.53,0,0,1,6.59-3.25q4.31,0,7.33,4.17a17.41,17.41,0,0,1,3,10.46,97,97,0,0,1-1.64,14.2L257,388.26q-1.86,10.84-3.09,15.88a23.2,23.2,0,0,1-4.17,8.83,9.89,9.89,0,0,1-8.3,3.79,10,10,0,0,1-8.11-3.69,21.13,21.13,0,0,1-4.24-8.29Q227.91,400.19,225.75,389Z"/><path d="M365.25,396.07l-5.72-19.95H310.82l-5.72,20.38q-3.35,11.93-5.72,16.1t-7.77,4.17q-4.58,0-8.09-4.44A15.81,15.81,0,0,1,280,402.25a29.26,29.26,0,0,1,.82-6.72q.82-3.47,2.7-9.65l30.65-103.2L317.31,272a62.42,62.42,0,0,1,3.92-10.35,18.79,18.79,0,0,1,5.48-6.67,13.56,13.56,0,0,1,8.38-2.55,13.7,13.7,0,0,1,8.46,2.55,19.05,19.05,0,0,1,5.48,6.56,52.28,52.28,0,0,1,3.52,8.62q1.43,4.61,3.64,12.3L387.49,385q3.68,11.71,3.68,17a16.46,16.46,0,0,1-3.47,10.14q-3.48,4.61-8.38,4.61a8.67,8.67,0,0,1-4.9-1.35,11.22,11.22,0,0,1-3.43-3.69,38.08,38.08,0,0,1-3-7.15Q366.4,399.75,365.25,396.07Zm-48.06-44.12H353l-18.06-65.58Z"/><path d="M444,346.09h-8.29v51.06q0,10.08-3.27,14.85a9.93,9.93,0,0,1-8.53,4.77,9.79,9.79,0,0,1-8.77-5q-3.11-5-3.11-14.63V274.88q0-10.41,3.43-15.07t11.08-4.66H465a86.41,86.41,0,0,1,13.63.92,27.55,27.55,0,0,1,10.2,3.74,31.07,31.07,0,0,1,9.72,9,43.06,43.06,0,0,1,6.42,13.6,60.12,60.12,0,0,1,2.19,16.42q0,17.78-7.37,28.4T477.44,342.3q6.3,4.55,12,13.44a142.45,142.45,0,0,1,10.24,18.92,163,163,0,0,1,7,18.1q2.51,8.08,2.51,11.11a14.34,14.34,0,0,1-1.47,6.23,12.27,12.27,0,0,1-4,4.88,10,10,0,0,1-5.9,1.79,9.41,9.41,0,0,1-6.7-2.55,22.58,22.58,0,0,1-4.66-6.45q-2-3.9-5.3-11.49l-9.49-21.46a126,126,0,0,0-9.13-18q-4-6.18-8.17-8.46A21.51,21.51,0,0,0,444,346.09Zm13.55-66.77H435.67V323h21.2a44.39,44.39,0,0,0,14.35-2,16.54,16.54,0,0,0,8.89-6.83q3.07-4.82,3.07-13.28a26.17,26.17,0,0,0-2.47-11.65,17,17,0,0,0-6.86-7.53Q469.71,279.32,457.52,279.32Z"/></svg>